<svg width="56" height="56" viewBox="0 0 56 56" fill="none" xmlns="http://www.w3.org/2000/svg">
<rect width="6" height="6" rx="3" fill="white"/>
<rect y="10" width="6" height="6" rx="3" fill="white"/>
<rect y="20" width="6" height="6" rx="3" fill="white"/>
<rect y="30" width="6" height="6" rx="3" fill="white"/>
<rect y="40" width="6" height="6" rx="3" fill="white"/>
<rect y="50" width="6" height="6" rx="3" fill="white"/>
<rect x="10" width="6" height="6" rx="3" fill="white"/>
<rect x="10" y="10" width="6" height="6" rx="3" fill="white"/>
<rect x="10" y="20" width="6" height="6" rx="3" fill="white"/>
<rect x="10" y="30" width="6" height="6" rx="3" fill="white"/>
<rect x="10" y="40" width="6" height="6" rx="3" fill="white"/>
<rect x="10" y="50" width="6" height="6" rx="3" fill="white"/>
<rect x="20" width="6" height="6" rx="3" fill="white"/>
<rect x="20" y="10" width="6" height="6" rx="3" fill="white"/>
<rect x="20" y="20" width="6" height="6" rx="3" fill="white"/>
<rect x="20" y="30" width="6" height="6" rx="3" fill="white"/>
<rect x="20" y="40" width="6" height="6" rx="3" fill="white"/>
<rect x="20" y="50" width="6" height="6" rx="3" fill="white"/>
<rect x="30" width="6" height="6" rx="3" fill="white"/>
<rect x="30" y="10" width="6" height="6" rx="3" fill="white"/>
<rect x="30" y="20" width="6" height="6" rx="3" fill="white"/>
<rect x="30" y="30" width="6" height="6" rx="3" fill="white"/>
<rect x="30" y="40" width="6" height="6" rx="3" fill="white"/>
<rect x="30" y="50" width="6" height="6" rx="3" fill="white"/>
<rect x="40" width="6" height="6" rx="3" fill="white"/>
<rect x="40" y="10" width="6" height="6" rx="3" fill="white"/>
<rect x="40" y="20" width="6" height="6" rx="3" fill="white"/>
<rect x="40" y="30" width="6" height="6" rx="3" fill="white"/>
<rect x="40" y="40" width="6" height="6" rx="3" fill="white"/>
<rect x="40" y="50" width="6" height="6" rx="3" fill="white"/>
<rect x="50" width="6" height="6" rx="3" fill="white"/>
<rect x="50" y="10" width="6" height="6" rx="3" fill="white"/>
<rect x="50" y="20" width="6" height="6" rx="3" fill="white"/>
<rect x="50" y="30" width="6" height="6" rx="3" fill="white"/>
<rect x="50" y="40" width="6" height="6" rx="3" fill="white"/>
<rect x="50" y="50" width="6" height="6" rx="3" fill="white"/>
</svg>
